<?xml version="1.0" standalone="no"?>
<!DOCTYPE svg PUBLIC "-//W3C//DTD SVG 20010904//EN"
 "http://www.w3.org/TR/2001/REC-SVG-20010904/DTD/svg10.dtd">
<svg version="1.0" xmlns="http://www.w3.org/2000/svg"
 width="264.000000pt" height="280.000000pt" viewBox="0 0 264.000000 280.000000"
 preserveAspectRatio="xMidYMid meet">

<g transform="translate(0.000000,280.000000) scale(0.100000,-0.100000)"
fill="#000000" stroke="none">
<path d="M1350 2748 c-151 -22 -264 -128 -305 -284 -8 -31 -17 -59 -19 -61 -3
-3 -51 -20 -108 -40 -407 -136 -701 -466 -800 -898 -28 -119 -30 -371 -4 -490
53 -246 159 -440 335 -616 98 -98 199 -172 308 -227 60 -31 165 -74 168 -69 1
1 7 49 14 107 22 202 43 647 60 1270 6 214 10 260 24 288 10 17 23 32 29 32 9
0 9 -3 0 -12 -17 -17 -15 -87 3 -122 8 -16 39 -61 69 -100 59 -79 156 -146
211 -146 32 0 89 40 142 100 115 130 133 156 133 188 0 35 22 22 33 -19 5 -19
7 -99 3 -179 -7 -163 -7 -159 -41 -475 -29 -266 -45 -546 -45 -793 l0 -174 33
7 c317 66 642 327 799 640 86 171 122 333 122 545 -1 172 -17 266 -73 421
-103 283 -358 558 -624 674 l-63 28 -11 88 c-14 111 -39 166 -99 223 -83 80
-178 110 -294 94z m-20 -98 c13 -8 13 -10 -2 -10 -9 0 -20 5 -23 10 -8 13 5
13 25 0z m162 -10 c15 0 19 -3 10 -8 -9 -6 -5 -12 13 -22 20 -11 25 -19 20
-39 -4 -22 2 -31 40 -56 43 -29 56 -45 36 -45 -5 0 -11 6 -14 13 -2 7 -10 0
-17 -15 -13 -28 -21 -33 -33 -21 -8 7 -57 14 -57 7 0 -8 35 -44 43 -44 4 0 19
-7 33 -16 34 -23 16 -47 -25 -33 -19 7 -42 6 -72 -2 -68 -18 -140 -14 -187 11
-26 14 -54 21 -72 18 -38 -6 -38 4 0 36 25 21 29 30 24 52 -5 19 -4 25 5 20
11 -7 15 10 12 47 -2 10 5 17 14 17 9 0 19 9 22 20 4 15 14 20 38 20 18 0 38
7 46 17 12 14 12 16 0 9 -9 -6 -12 -4 -9 5 6 17 66 28 90 17 9 -4 27 -8 40 -8z
m151 -91 c-8 -8 -16 -8 -30 0 -16 9 -14 10 12 11 21 0 26 -3 18 -11z m42 -108
c8 -16 20 -31 27 -33 9 -3 14 -32 15 -94 2 -108 1 -103 14 -81 12 21 41 23 33
2 -4 -8 -1 -15 5 -15 18 0 30 -44 24 -90 -6 -45 -59 -110 -89 -110 -13 0 -12
4 1 31 9 17 14 34 10 37 -8 8 -24 -17 -26 -40 -2 -30 -3 -32 -26 -68 l-23 -35
6 35 c3 19 10 60 16 90 13 68 11 209 -3 227 -8 9 -7 17 5 28 24 25 17 61 -21
103 -7 7 -13 20 -13 28 0 25 29 15 45 -15z m-628 -143 c-3 -7 -5 -2 -5 12 0
14 2 19 5 13 2 -7 2 -19 0 -25z m183 22 c12 -8 10 -10 -8 -10 -13 0 -20 -4
-17 -10 4 -6 -6 -10 -22 -10 -22 0 -25 2 -13 10 10 6 11 10 3 10 -7 0 -13 5
-13 10 0 13 50 13 70 0z m319 -9 c9 -6 10 -11 2 -15 -6 -4 -9 -12 -6 -17 4 -5
-3 -9 -14 -9 -12 0 -21 7 -21 15 0 8 -8 15 -17 15 -15 0 -16 2 -3 10 19 12 41
12 59 1z m-169 -29 c0 -4 -6 -14 -12 -21 -11 -10 -10 -15 5 -25 16 -13 25 -42
10 -33 -5 3 -9 -15 -11 -40 -3 -41 -1 -43 17 -34 19 11 26 7 46 -28 7 -11 0
-13 -35 -8 -25 3 -51 1 -62 -6 -16 -10 -22 -8 -38 11 -17 21 -18 26 -4 64 8
22 14 48 14 58 0 10 7 21 16 24 10 4 13 13 9 26 -5 16 -2 20 19 20 14 0 26 -4
26 -8z m-103 -8 c-3 -3 -12 -4 -19 -1 -8 3 -5 6 6 6 11 1 17 -2 13 -5z m-47
-25 c0 -5 -12 -8 -27 -8 -17 1 -21 3 -10 6 9 2 17 9 17 14 0 6 5 7 10 4 6 -3
10 -10 10 -16z m210 11 c0 -5 -4 -10 -10 -10 -5 0 -10 5 -10 10 0 6 5 10 10
10 6 0 10 -4 10 -10z m-438 -14 c3 -5 0 -16 -8 -24 -16 -16 -14 -36 4 -38 7
-1 17 -2 23 -3 6 0 8 -8 4 -18 -3 -10 -8 -33 -11 -52 -2 -19 -6 -36 -8 -38 -1
-2 -15 20 -29 48 -26 49 -27 61 -10 121 4 18 23 20 35 4z m258 -5 c0 -6 -10
-17 -22 -25 -14 -10 -17 -16 -8 -16 11 0 11 -3 2 -12 -7 -7 -12 -24 -12 -38 0
-14 -5 -31 -11 -37 -6 -6 -9 -21 -7 -33 4 -32 72 -50 168 -46 l75 4 -4 101 -3
102 37 -26 c42 -28 78 -31 115 -10 14 8 33 14 44 15 17 0 18 -5 12 -57 -4 -32
-11 -60 -17 -61 -5 -2 -15 -10 -22 -17 -7 -7 -23 -16 -35 -19 -34 -11 -62 -46
-62 -79 0 -27 -2 -29 -30 -24 -16 4 -31 3 -34 -1 -5 -8 -114 -7 -160 1 -38 6
-53 30 -23 37 20 6 21 6 3 13 -10 4 -27 5 -38 1 -22 -7 -49 12 -42 29 2 7 -6
17 -18 22 -15 7 -26 24 -33 51 -6 25 -15 39 -22 37 -7 -3 -13 0 -13 6 0 6 -9
11 -20 11 -13 0 -18 5 -14 15 5 12 2 14 -12 8 -17 -6 -18 -5 -5 11 12 15 24
16 73 11 58 -7 118 6 118 26 0 5 5 9 10 9 6 0 10 -4 10 -9z m260 -7 c14 -8 17
-13 7 -10 -10 3 -27 6 -38 6 -10 0 -19 5 -19 10 0 14 21 12 50 -6z m-260 -114
c0 -5 -7 -10 -16 -10 -8 0 -12 5 -9 10 3 6 10 10 16 10 5 0 9 -4 9 -10z m153
-207 c52 -5 56 -7 35 -17 -15 -8 -25 -9 -30 -3 -4 6 -20 4 -41 -6 -56 -27 -99
-22 -132 14 l-27 32 68 -7 c38 -4 95 -10 127 -13z m-63 -118 c0 -20 -50 -20
-76 0 -18 13 -15 14 29 15 35 0 47 -4 47 -15z m493 -579 c7 -19 -16 -38 -37
-31 -55 17 -53 15 -32 31 25 18 62 18 69 0z m183 -567 c3 -6 2 -15 -4 -21 -11
-11 -207 -68 -234 -68 -58 0 34 44 147 71 28 6 54 16 60 20 12 12 22 11 31 -2z"/>
<path d="M1444 2625 c8 -8 20 -15 27 -15 7 0 4 6 -7 15 -25 19 -40 19 -20 0z"/>
<path d="M1740 2186 c-15 -28 -4 -51 17 -38 8 5 10 17 5 36 l-8 28 -14 -26z"/>
<path d="M1195 1373 c-40 -10 -166 -65 -160 -71 3 -3 32 -4 65 -3 38 2 60 -2
60 -8 0 -6 10 -28 23 -49 13 -20 29 -58 36 -84 12 -41 11 -52 -2 -80 -14 -30
-24 -64 -47 -158 -11 -44 -34 -249 -29 -254 2 -2 56 -7 120 -11 l116 -7 7 52
c4 28 7 95 7 148 0 79 -5 109 -28 174 l-28 79 29 55 c16 30 50 77 75 103 l46
49 70 -3 70 -4 -80 39 c-44 22 -90 40 -101 40 -30 0 -134 -47 -134 -62 0 -6
-3 -8 -6 -5 -4 4 -2 13 4 20 9 11 4 17 -24 30 -35 17 -52 19 -89 10z"/>
<path d="M1230 632 c0 -12 -10 -14 -49 -9 -59 7 -55 16 -71 -163 -6 -68 -13
-127 -15 -130 -2 -3 -6 -53 -9 -110 -4 -58 -9 -126 -12 -151 l-5 -46 38 -7
c21 -3 88 -9 149 -13 l112 -6 6 214 c7 220 9 361 7 392 -1 14 -11 17 -51 17
-27 0 -50 4 -50 9 0 5 -11 11 -25 13 -18 4 -25 1 -25 -10z"/>
</g>
</svg>
